<?xml version="1.0" encoding="UTF-8" standalone="no"?>
<!-- Created with Inkscape (http://www.inkscape.org/) -->

<svg
   xmlns:dc="http://purl.org/dc/elements/1.1/"
   xmlns:cc="http://creativecommons.org/ns#"
   xmlns:rdf="http://www.w3.org/1999/02/22-rdf-syntax-ns#"
   xmlns:svg="http://www.w3.org/2000/svg"
   xmlns="http://www.w3.org/2000/svg"
   version="1.1"
   width="202"
   height="184"
   id="svg2">
  <metadata
     id="metadata8">
    <rdf:RDF>
      <cc:Work
         rdf:about="">
        <dc:format>image/svg+xml</dc:format>
        <dc:type
           rdf:resource="http://purl.org/dc/dcmitype/StillImage" />
        <dc:title></dc:title>
      </cc:Work>
    </rdf:RDF>
  </metadata>
  <defs
     id="defs6" />
  <g
     transform="translate(1,3)"
     id="g3041">
    <path
       d="M 6.25,171.60795 C 8.6449357,169.78994 8.867569,155 6.5,155 5.675,155 5,154.55 5,154 c 0,-0.56927 2.9483375,-1 6.845012,-1 5.361345,0 7.203734,0.39638 8.5,1.82874 C 24.16569,159.05054 20.840645,166 15,166 c -2.533333,0 -3,0.38889 -3,2.5 0,1.55556 0.566667,2.5 1.5,2.5 0.825,0 1.5,0.45 1.5,1 0,0.55 -2.3625,0.98569 -5.25,0.9682 -4.5802359,-0.0277 -5.0267453,-0.20128 -3.5,-1.36025 z M 15.965156,163 c 1.345558,0 1.993351,-4.20901 0.948319,-6.16167 C 16.372362,155.82725 15.045465,155 13.964816,155 12.296052,155 12,155.69417 12,159.60699 c 0,3.79013 0.280465,4.49936 1.581787,4 C 14.451771,163.27314 15.524286,163 15.965156,163 z M 24.25,171.60795 C 25.63474,170.55679 26,168.76013 26,163 c 0,-5.76013 -0.36526,-7.55679 -1.75,-8.60795 -1.522423,-1.15569 -1.034759,-1.32844 3.75,-1.32844 4.784759,0 5.272423,0.17275 3.75,1.32844 -0.9625,0.73064 -1.75,2.51633 -1.75,3.96819 0,2.46194 0.303135,2.63976 4.5,2.63976 4.196865,0 4.5,-0.17782 4.5,-2.63976 0,-1.45186 -0.7875,-3.23755 -1.75,-3.96819 -1.491943,-1.13255 -0.238526,-1.33313 8.5,-1.36025 C 51.937869,153.0126 56,153.39631 56,154 c 0,0.55 -0.675,1 -1.5,1 -1.208333,0 -1.5,1.55556 -1.5,8 0,6.44444 0.291667,8 1.5,8 0.825,0 1.5,0.45 1.5,1 0,0.60369 -4.062131,0.9874 -10.25,0.9682 -8.738526,-0.0271 -9.991943,-0.2277 -8.5,-1.36025 1.102812,-0.83715 1.75,-2.6745 1.75,-4.96819 L 39,163 l -4.5,0 -4.5,0 0,4 c 0,2.88889 0.416667,4 1.5,4 0.825,0 1.5,0.45 1.5,1 0,0.55 -2.3625,0.98569 -5.25,0.9682 -4.580236,-0.0277 -5.026745,-0.20128 -3.5,-1.36025 z M 49,163 c 0,-6.55732 -0.272505,-7.83741 -1.75,-8.22061 C 43.5751,153.82628 43,154.93867 43,163 c 0,8.06133 0.5751,9.17372 4.25,8.22061 C 48.727495,170.83741 49,169.55732 49,163 z m 20,0 c 0,-6.37152 -0.384262,-10 -1.059017,-10 -0.582459,0 -0.780902,-0.45 -0.440983,-1 0.339919,-0.55 1.716476,-1 3.059017,-1 C 72.721752,151 73,151.43622 73,154.82681 c 0,3.69422 0.105304,3.81135 3.039447,3.38071 C 80.253678,157.589 83,160.26138 83,164.98067 83,170.22617 79.7782,173 73.685549,173 L 69,173 69,163 z m 9.084273,5.27834 C 79.412252,164.7855 77.81926,161 75.021439,161 73.262379,161 73,161.64899 73,166 c 0,4.35371 0.261716,5 2.024751,5 1.283574,0 2.403537,-0.99628 3.059522,-2.72166 z m 7.53435,4.00695 c -1.078636,-1.07864 -0.667788,-5.00153 0.631377,-6.02857 0.6875,-0.5435 2.6,-1.4236 4.25,-1.95578 3.276162,-1.05668 4.041361,-3.573 1.25,-4.11057 -1.067943,-0.20567 -1.75,0.27618 -1.75,1.23631 0,1.55795 -3.046482,2.19351 -4.335515,0.90447 C 84.21073,160.8774 88.38982,158 91.954988,158 96.926435,158 98,159.44148 98,166.11667 c 0,3.65747 0.450261,5.88497 1.25,6.1839 0.6875,0.25698 -1.95912,0.49786 -5.881377,0.53529 -3.922257,0.0374 -7.409757,-0.21033 -7.75,-0.55057 z m 6.79959,-1.89228 C 94.359957,169.64789 94.529548,166 92.622445,166 c -1.845669,0 -3.956151,2.65103 -3.149518,3.9562 0.753854,1.21976 0.862842,1.23592 2.945286,0.43681 z M 101,170.5 c 0,-2.74999 1.45386,-3.36561 2.36163,-1 0.6401,1.66809 4.18688,2.03954 5.11623,0.53582 0.32774,-0.53029 -1.2207,-2.11094 -3.44098,-3.51254 C 98.340918,162.29631 100.30546,158 108.93426,158 c 3.67012,0 4.06574,0.24326 4.06574,2.5 0,1.55556 -0.56667,2.5 -1.5,2.5 -0.825,0 -1.5,-0.675 -1.5,-1.5 0,-0.825 -0.87344,-1.5 -1.94098,-1.5 -3.5933,0 -3.1593,1.90819 0.90566,3.98198 3.0518,1.55691 4.03532,2.65446 4.03532,4.50316 C 113,171.52086 110.4006,173 105.06574,173 101.39562,173 101,172.75674 101,170.5 z m 15,0.5 c -1.2381,-1.2381 -2,-3.33333 -2,-5.5 0,-4.52943 2.90918,-7.5 7.34501,-7.5 3.56331,0 6.65499,2.47555 6.65499,5.32874 0,1.3374 -0.99239,1.67126 -4.96778,1.67126 -4.73711,0 -4.92828,0.10447 -4.11724,2.25 0.70097,1.85435 1.57453,2.23482 4.96778,2.16369 2.63699,-0.0553 4.11724,0.35566 4.11724,1.14301 0,3.04394 -9.06451,3.37879 -12,0.4433 z m 7.36163,-9.5 c -0.31659,-0.825 -1.14736,-1.5 -1.84617,-1.5 -0.69882,0 -1.83077,0.675 -2.51546,1.5 -1.0609,1.27831 -0.78806,1.5 1.84617,1.5 2.33677,0 2.9506,-0.36604 2.51546,-1.5 z M 139.25,171.60795 C 140.63474,170.55679 141,168.76013 141,163 c 0,-5.76013 -0.36526,-7.55679 -1.75,-8.60795 -1.51039,-1.14655 -0.81679,-1.3328 5.06574,-1.36025 3.74866,-0.0175 7.68616,0.43403 8.75,1.00338 2.33289,1.24853 2.63899,6.47105 0.45105,7.69549 -2.4298,1.35978 1.91156,9.26933 5.08771,9.26933 2.32771,0 2.3955,-0.2264 2.3955,-8 0,-6.44444 -0.29167,-8 -1.5,-8 -0.825,0 -1.5,-0.45 -1.5,-1 0,-0.57246 3.02564,-1 7.07692,-1 6.48853,0 7.31996,0.24303 10,2.92308 C 177.36942,158.21557 178,159.74224 178,163 c 0,3.25776 -0.63058,4.78443 -2.92308,7.07692 C 172.25981,172.89404 171.8123,173 162.73191,173 c -7.85783,0 -9.69667,-0.30358 -11.07692,-1.82874 C 150.74474,170.16545 150,168.84759 150,168.24269 150,166.90431 147.21292,164 145.92857,164 c -1.67158,0 -0.99939,6.22575 0.82143,7.60795 1.52242,1.15569 1.03476,1.32844 -3.75,1.32844 -4.78476,0 -5.27242,-0.17275 -3.75,-1.32844 z M 171.2671,169.25 c 2.31481,-2.56863 2.99641,-6.42672 1.7258,-9.76868 -1.29887,-3.41629 -2.6214,-4.44476 -5.7429,-4.46601 -2.14711,-0.0146 -2.25,0.35052 -2.25,7.98469 0,7.72567 0.0804,8 2.34501,8 1.28976,0 3.0547,-0.7875 3.92209,-1.75 z m -21.83853,-8.82143 C 150.29286,159.56429 151,158.52929 151,158.12857 151,156.77782 148.61334,155 146.8,155 c -1.39048,0 -1.8,0.7963 -1.8,3.5 0,3.8586 1.74056,4.61658 4.42857,1.92857 z M 180.25,171.60795 C 182.64494,169.78994 182.86757,155 180.5,155 c -0.825,0 -1.5,-0.45 -1.5,-1 0,-0.58333 3.33333,-1 8,-1 7.86667,0 8,0.0417 8,2.5 0,1.55556 -0.56667,2.5 -1.5,2.5 -0.825,0 -1.5,-0.675 -1.5,-1.5 0,-1 -1,-1.5 -3,-1.5 -2.7619,0 -3,0.27778 -3,3.5 0,2.7674 0.39624,3.5 1.89301,3.5 1.04116,0 2.15203,-0.675 2.46862,-1.5 1.11332,-2.90127 2.63837,-1.4562 2.63837,2.5 0,3.9562 -1.52505,5.40127 -2.63837,2.5 -0.31659,-0.825 -1.42746,-1.5 -2.46862,-1.5 -1.49677,0 -1.89301,0.7326 -1.89301,3.5 0,2.44444 0.45238,3.5 1.5,3.5 0.825,0 1.5,0.45 1.5,1 0,0.55 -2.3625,0.98569 -5.25,0.9682 -4.58024,-0.0277 -5.02675,-0.20128 -3.5,-1.36025 z M 58,165.5 c 0,-1.08333 1.111111,-1.5 4,-1.5 2.888889,0 4,0.41667 4,1.5 0,1.08333 -1.111111,1.5 -4,1.5 -2.888889,0 -4,-0.41667 -4,-1.5 z m -2.674523,-16.95913 c -1.745987,-0.75947 -3.936718,-2.54411 -4.86829,-3.96587 -2.161373,-3.29867 -0.997422,-4.87482 6.002792,-8.12862 C 59.231991,135.15791 63.3,132.4709 65.5,130.47523 70.06598,126.33334 70.439878,126.95374 59.789533,121 51.500198,116.36611 39.324867,104.2264 34.214713,95.5 27.060488,83.283027 23.023022,68.07044 23.007554,53.273053 c -0.0086,-8.226848 0.390022,-8.714136 10.173651,-12.436621 8.918888,-3.393467 18.23972,-3.565334 28.000442,-0.5163 4.575094,1.429159 10.471481,3.966785 13.103081,5.639169 C 79.190102,49.07667 81,49.661259 81,48.128305 81,46.516183 90.920967,32.041055 95.229471,27.36688 100.71781,21.412731 109.38433,15.550136 117.82294,12.083181 c 8.602,-3.5340785 23.27923,-7.3846661 24.27826,-6.3694237 1.47653,1.5005055 6.88386,16.0971347 8.492,22.9234297 2.10029,8.915418 2.06111,23.073379 -0.0868,31.362813 -0.92633,3.575 -3.21923,9.825874 -5.09533,13.890832 C 143.53499,77.955789 142,81.374855 142,81.488756 c 0,0.113901 3.4875,1.925764 7.75,4.026361 9.59522,4.728608 17.51449,12.498611 21.9183,21.505163 3.78971,7.75062 6.01091,17.84209 4.53441,20.60096 -1.53694,2.87179 -16.63202,11.42044 -25.65698,14.53006 -14.59391,5.02845 -31.57583,5.50784 -45.54407,1.28569 -5.901668,-1.78388 -17.741357,-7.44441 -22.285322,-10.65456 l -2.783663,-1.96656 -2.216337,2.84207 c -6.607776,8.47331 -15.415127,16.39904 -18.116376,16.30292 -0.604979,-0.0215 -2.528497,-0.66053 -4.274485,-1.41999 z"
       id="path3055"
       style="fill:#dcdead" />
    <path
       d="M 6.8,171.8 C 8.2778585,170.32214 8.4602649,155 7,155 c -0.55,0 -1,-0.45 -1,-1 0,-0.55556 2.6666667,-1 6,-1 6.73603,0 10,2.09789 10,6.42742 C 22,162.33434 17.741885,166 14.365141,166 12.521781,166 12,166.54057 12,168.45031 c 0,1.34767 0.7875,2.90899 1.75,3.46959 1.360926,0.79267 0.649477,1.02604 -3.2,1.04969 C 6.7,172.99324 5.8666667,172.73333 6.8,171.8 z m 10,-9 c 2.686454,-2.68645 0.719706,-7.8 -3,-7.8 -1.466667,0 -1.8,0.83333 -1.8,4.5 0,3.66667 0.333333,4.5 1.8,4.5 0.99,0 2.34,-0.54 3,-1.2 z M 24,172 c 0,-0.55 0.45,-1 1,-1 1.460265,0 1.277858,-15.32214 -0.2,-16.8 -0.933333,-0.93333 -0.222222,-1.2 3.2,-1.2 3.422222,0 4.133333,0.26667 3.2,1.2 -0.66,0.66 -1.2,2.46 -1.2,4 0,2.65185 0.238095,2.8 4.5,2.8 4.261905,0 4.5,-0.14815 4.5,-2.8 0,-1.54 -0.54,-3.34 -1.2,-4 -0.933333,-0.93333 -0.222222,-1.2 3.2,-1.2 3.422222,0 4.133333,0.26667 3.2,1.2 -1.477858,1.47786 -1.660265,16.8 -0.2,16.8 0.55,0 1,0.45 1,1 0,0.55 -1.8,1 -4,1 -2.2,0 -4,-0.45 -4,-1 0,-0.55 0.45,-1 1,-1 0.55,0 1,-1.8 1,-4 l 0,-4 -4.5,0 -4.5,0 0,4 c 0,2.2 0.45,4 1,4 0.55,0 1,0.45 1,1 0,0.55 -1.8,1 -4,1 -2.2,0 -4,-0.45 -4,-1 z m 23.8,-0.2 c 0.722807,-0.72281 1.2,-4.22222 1.2,-8.8 0,-4.57778 -0.477193,-8.07719 -1.2,-8.8 -0.933333,-0.93333 -0.222222,-1.2 3.2,-1.2 3.422222,0 4.133333,0.26667 3.2,1.2 -1.603265,1.60327 -1.603265,15.99673 0,17.6 0.933333,0.93333 0.222222,1.2 -3.2,1.2 -3.422222,0 -4.133333,-0.26667 -3.2,-1.2 z M 69,163.12723 c 0,-7.39763 -0.336913,-10.14617 -1.25,-10.19752 -1.454654,-0.0818 2.145019,-1.75512 4,-1.85942 0.802144,-0.0451 1.25,1.35389 1.25,3.90471 0,3.85156 0.08993,3.95701 2.895833,3.39583 5.850214,-1.17004 9.378916,6.59841 5.290598,11.64726 -1.318985,1.62888 -3.227977,2.37557 -7,2.73802 L 69,173.25446 69,163.12723 z M 77.8,169.8 C 80.594336,167.00566 78.184224,160 74.428571,160 73.363636,160 73,161.4 73,165.5 c 0,4.62963 0.284848,5.5 1.8,5.5 0.99,0 2.34,-0.54 3,-1.2 z m 8.14675,1.63584 c -1.943637,-2.34194 -0.08286,-5.31478 4.11364,-6.57208 4.007873,-1.20079 5.195035,-3.44478 2.391566,-4.52057 -0.896774,-0.34412 -2.130568,0.19496 -2.93268,1.28138 -1.145447,1.55146 -1.612195,1.64787 -2.701955,0.55811 -1.089761,-1.08976 -0.982002,-1.56481 0.623809,-2.75 2.562957,-1.89163 7.025964,-1.82273 8.987441,0.13875 C 97.465161,160.60802 98,162.96212 98,166.4881 c 0,3.36111 0.463993,5.51812 1.25,5.811 0.6875,0.25617 -1.774284,0.4682 -5.470631,0.47118 -4.402696,0.004 -7.104154,-0.4567 -7.832619,-1.33444 z m 7.862124,-3.61617 c 0.262452,-2.26296 -0.0029,-2.58169 -1.765584,-2.12074 -2.55747,0.66879 -3.401457,1.92532 -2.634927,3.92286 0.939988,2.44957 4.055379,1.17374 4.400511,-1.80212 z m 7.857796,4.51366 C 100.6293,171.29596 100.88283,168 102,168 c 0.55,0 1,0.675 1,1.5 0,1 1,1.5 3,1.5 4.19047,0 3.88936,-2.60156 -0.51406,-4.44143 -4.5857,-1.91602 -5.496496,-4.32185 -2.54191,-6.71433 C 106.65522,156.8391 113,157.63583 113,161.10699 c 0,2.25676 -1.54761,2.51431 -2.36163,0.39301 C 109.92815,159.64919 105,159.48731 105,161.31479 c 0,0.72313 1.58887,2.07246 3.53082,2.99851 4.61037,2.19854 5.4501,4.47398 2.52515,6.84246 -2.21282,1.79184 -8.04374,2.52313 -9.3893,1.17757 z m 14.78788,-1.78788 C 115.10455,169.19545 114,166.925 114,165.5 c 0,-3.31527 4.15937,-7.5 7.45455,-7.5 2.80215,0 6.54545,3.14541 6.54545,5.5 0,1.13333 -1.22222,1.5 -5,1.5 -5.65232,0 -6.72089,1.82632 -2.63498,4.50352 1.79775,1.17793 2.99704,1.30932 5,0.5478 3.08648,-1.17348 3.64073,0.34005 0.70072,1.9135 -3.23097,1.72916 -7.02261,1.16922 -9.61119,-1.41937 z M 123.75,161.75 c -0.22917,-0.6875 -1.46667,-1.25 -2.75,-1.25 -1.28333,0 -2.52083,0.5625 -2.75,1.25 -0.27485,0.82456 0.66111,1.25 2.75,1.25 2.08889,0 3.02485,-0.42544 2.75,-1.25 z m 16.05,10.05 c 0.72281,-0.72281 1.2,-4.22222 1.2,-8.8 0,-4.57778 -0.47719,-8.07719 -1.2,-8.8 -1.92208,-1.92208 10.19977,-1.58889 12.97749,0.3567 2.84766,1.99458 2.83632,4.87692 -0.0275,6.99031 -1.42129,1.04886 -1.81032,1.83016 -1.05624,2.12129 0.65657,0.25348 1.69084,1.96702 2.29837,3.80786 1.16546,3.53137 3.02047,4.83997 5.50787,3.88547 1.15802,-0.44438 1.5,-2.3751 1.5,-8.46862 C 161,158.29767 160.5822,155 160,155 c -0.55,0 -1,-0.50078 -1,-1.11285 0,-0.74889 2.29104,-0.98339 7.00521,-0.71701 9.07043,0.51252 11.49479,2.58573 11.49479,9.82986 0,7.52116 -2.37567,9.3887 -12.52984,9.84983 -10.6987,0.48585 -12.60652,-0.11097 -14.72297,-4.6058 C 147.87434,163.20467 145,162.64738 145,167.22668 c 0,1.85532 0.54,3.91332 1.2,4.57332 0.93333,0.93333 0.22222,1.2 -3.2,1.2 -3.42222,0 -4.13333,-0.26667 -3.2,-1.2 z m 32.6433,-3.02251 C 173.29948,167.55512 174,164.95524 174,163 c 0,-4.859 -2.37802,-8 -6.0567,-8 l -2.9433,0 0,8 0,8 2.9433,0 c 1.9079,0 3.49091,-0.78184 4.5,-2.22251 z m -22.13628,-8.89157 C 151.81849,157.47349 150.41333,155 147.53138,155 145.29565,155 145,155.41689 145,158.56955 c 0,3.08399 0.29218,3.52608 2.14787,3.25 1.18133,-0.17575 2.60295,-1.04588 3.15915,-1.93363 z M 180.8,171.8 c 1.47786,-1.47786 1.66026,-16.8 0.2,-16.8 -0.55,0 -1,-0.45 -1,-1 0,-0.57778 3.16667,-1 7.5,-1 7.33333,0 7.5,0.0556 7.5,2.5 0,2.73716 -1.7214,3.38961 -2.63837,1 -0.32811,-0.85503 -1.81954,-1.5 -3.46862,-1.5 -2.63963,0 -2.89301,0.30654 -2.89301,3.5 0,2.7037 0.40952,3.5 1.8,3.5 0.99,0 2.34,-0.54 3,-1.2 0.93333,-0.93333 1.18246,-0.43333 1.12105,2.25 -0.0434,1.8975 -0.30592,2.8875 -0.58333,2.2 -0.27741,-0.6875 -1.59189,-1.25 -2.92105,-1.25 -2.08861,0 -2.41667,0.46837 -2.41667,3.45031 0,2.23104 0.61841,3.8105 1.75,4.46959 1.36093,0.79267 0.64948,1.02604 -3.2,1.04969 -3.85,0.0236 -4.68333,-0.23626 -3.75,-1.16959 z M 58,165.5 c 0,-1.08333 1.111111,-1.5 4,-1.5 2.888889,0 4,0.41667 4,1.5 0,1.08333 -1.111111,1.5 -4,1.5 -2.888889,0 -4,-0.41667 -4,-1.5 z m -2.674523,-16.95913 c -1.745987,-0.75947 -3.936718,-2.54411 -4.86829,-3.96587 -2.161373,-3.29867 -0.997422,-4.87482 6.002792,-8.12862 C 59.231991,135.15791 63.3,132.4709 65.5,130.47523 70.06598,126.33334 70.439878,126.95374 59.789533,121 51.500198,116.36611 39.324867,104.2264 34.214713,95.5 27.060488,83.283027 23.023022,68.07044 23.007554,53.273053 c -0.0086,-8.226848 0.390022,-8.714136 10.173651,-12.436621 8.918888,-3.393467 18.23972,-3.565334 28.000442,-0.5163 4.575094,1.429159 10.471481,3.966785 13.103081,5.639169 C 79.190102,49.07667 81,49.661259 81,48.128305 81,46.516183 90.920967,32.041055 95.229471,27.36688 100.71781,21.412731 109.38433,15.550136 117.82294,12.083181 c 8.602,-3.5340785 23.27923,-7.3846661 24.27826,-6.3694237 1.47653,1.5005055 6.88386,16.0971347 8.492,22.9234297 2.10029,8.915418 2.06111,23.073379 -0.0868,31.362813 -0.92633,3.575 -3.21923,9.825874 -5.09533,13.890832 C 143.53499,77.955789 142,81.374855 142,81.488756 c 0,0.113901 3.4875,1.925764 7.75,4.026361 9.59522,4.728608 17.51449,12.498611 21.9183,21.505163 3.78971,7.75062 6.01091,17.84209 4.53441,20.60096 -1.53694,2.87179 -16.63202,11.42044 -25.65698,14.53006 -14.59391,5.02845 -31.57583,5.50784 -45.54407,1.28569 -5.901668,-1.78388 -17.741357,-7.44441 -22.285322,-10.65456 l -2.783663,-1.96656 -2.216337,2.84207 c -6.607776,8.47331 -15.415127,16.39904 -18.116376,16.30292 -0.604979,-0.0215 -2.528497,-0.66053 -4.274485,-1.41999 z M 115.02809,103.15418 C 118.54811,102.66173 120,101.16235 120,98.019637 c 0,-2.391225 0.53485,-2.864087 4.25,-3.757464 l 4.25,-1.021991 -4.09636,-0.120091 C 115.9072,92.871005 109.9449,98.648833 110.08059,107 l 0.0731,4.5 1.20125,-4 c 0.92369,-3.07579 1.77238,-4.0799 3.67314,-4.34582 z M 58.366483,75.216035 C 58.779836,74.547216 60.441476,74 62.059017,74 64.646994,74 65,73.646994 65,71.059017 65,67.820199 65.826196,67.039257 70.41271,65.942784 73.42351,65.223009 73.400897,65.202279 69.5,65.1061 60.902012,64.894109 54.724924,72.372886 55.959474,81.5 c 0.168331,1.24448 0.53211,0.66501 0.962991,-1.533965 0.380857,-1.943681 1.030665,-4.081181 1.444018,-4.75 z M 112.75,41.778856 c 3.17146,-0.815836 3.4371,-1.196391 3.64806,-5.22613 0.0749,-1.431333 1.29424,-2.266425 4.60194,-3.151824 2.65571,-0.710875 3.68031,-1.308529 2.5,-1.458251 -9.03924,-1.146628 -16.59236,5.379834 -16.44356,14.208478 l 0.0564,3.348871 1.19356,-3.442552 c 0.91036,-2.625713 1.96471,-3.640925 4.44356,-4.278592 z"
       id="path3053"
       style="fill:#e0e208" />
    <path
       d="M 6.8,171.8 C 8.2778585,170.32214 8.4602649,155 7,155 c -0.55,0 -1,-0.45 -1,-1 0,-0.55556 2.6666667,-1 6,-1 6.73603,0 10,2.09789 10,6.42742 C 22,162.33434 17.741885,166 14.365141,166 12.521781,166 12,166.54057 12,168.45031 c 0,1.34767 0.7875,2.90899 1.75,3.46959 1.360926,0.79267 0.649477,1.02604 -3.2,1.04969 C 6.7,172.99324 5.8666667,172.73333 6.8,171.8 z m 10,-9 c 2.686454,-2.68645 0.719706,-7.8 -3,-7.8 -1.466667,0 -1.8,0.83333 -1.8,4.5 0,3.66667 0.333333,4.5 1.8,4.5 0.99,0 2.34,-0.54 3,-1.2 z M 24,172 c 0,-0.55 0.45,-1 1,-1 1.460265,0 1.277858,-15.32214 -0.2,-16.8 -0.933333,-0.93333 -0.222222,-1.2 3.2,-1.2 3.422222,0 4.133333,0.26667 3.2,1.2 -0.66,0.66 -1.2,2.46 -1.2,4 0,2.65185 0.238095,2.8 4.5,2.8 4.261905,0 4.5,-0.14815 4.5,-2.8 0,-1.54 -0.54,-3.34 -1.2,-4 -0.933333,-0.93333 -0.222222,-1.2 3.2,-1.2 3.422222,0 4.133333,0.26667 3.2,1.2 -1.477858,1.47786 -1.660265,16.8 -0.2,16.8 0.55,0 1,0.45 1,1 0,0.55 -1.8,1 -4,1 -2.2,0 -4,-0.45 -4,-1 0,-0.55 0.45,-1 1,-1 0.55,0 1,-1.8 1,-4 l 0,-4 -4.5,0 -4.5,0 0,4 c 0,2.2 0.45,4 1,4 0.55,0 1,0.45 1,1 0,0.55 -1.8,1 -4,1 -2.2,0 -4,-0.45 -4,-1 z m 23.8,-0.2 c 0.722807,-0.72281 1.2,-4.22222 1.2,-8.8 0,-4.57778 -0.477193,-8.07719 -1.2,-8.8 -0.933333,-0.93333 -0.222222,-1.2 3.2,-1.2 3.422222,0 4.133333,0.26667 3.2,1.2 -1.603265,1.60327 -1.603265,15.99673 0,17.6 0.933333,0.93333 0.222222,1.2 -3.2,1.2 -3.422222,0 -4.133333,-0.26667 -3.2,-1.2 z M 69,163.12723 c 0,-7.39763 -0.336913,-10.14617 -1.25,-10.19752 -1.454654,-0.0818 2.145019,-1.75512 4,-1.85942 0.802144,-0.0451 1.25,1.35389 1.25,3.90471 0,3.85156 0.08993,3.95701 2.895833,3.39583 5.850214,-1.17004 9.378916,6.59841 5.290598,11.64726 -1.318985,1.62888 -3.227977,2.37557 -7,2.73802 L 69,173.25446 69,163.12723 z M 77.8,169.8 C 80.594336,167.00566 78.184224,160 74.428571,160 73.363636,160 73,161.4 73,165.5 c 0,4.62963 0.284848,5.5 1.8,5.5 0.99,0 2.34,-0.54 3,-1.2 z m 8.14675,1.63584 c -1.943637,-2.34194 -0.08286,-5.31478 4.11364,-6.57208 4.007873,-1.20079 5.195035,-3.44478 2.391566,-4.52057 -0.896774,-0.34412 -2.130568,0.19496 -2.93268,1.28138 -1.145447,1.55146 -1.612195,1.64787 -2.701955,0.55811 -1.089761,-1.08976 -0.982002,-1.56481 0.623809,-2.75 2.562957,-1.89163 7.025964,-1.82273 8.987441,0.13875 C 97.465161,160.60802 98,162.96212 98,166.4881 c 0,3.36111 0.463993,5.51812 1.25,5.811 0.6875,0.25617 -1.774284,0.4682 -5.470631,0.47118 -4.402696,0.004 -7.104154,-0.4567 -7.832619,-1.33444 z m 7.862124,-3.61617 c 0.262452,-2.26296 -0.0029,-2.58169 -1.765584,-2.12074 -2.55747,0.66879 -3.401457,1.92532 -2.634927,3.92286 0.939988,2.44957 4.055379,1.17374 4.400511,-1.80212 z m 7.857796,4.51366 C 100.6293,171.29596 100.88283,168 102,168 c 0.55,0 1,0.675 1,1.5 0,1 1,1.5 3,1.5 4.19047,0 3.88936,-2.60156 -0.51406,-4.44143 -4.5857,-1.91602 -5.496496,-4.32185 -2.54191,-6.71433 C 106.65522,156.8391 113,157.63583 113,161.10699 c 0,2.25676 -1.54761,2.51431 -2.36163,0.39301 C 109.92815,159.64919 105,159.48731 105,161.31479 c 0,0.72313 1.58887,2.07246 3.53082,2.99851 4.61037,2.19854 5.4501,4.47398 2.52515,6.84246 -2.21282,1.79184 -8.04374,2.52313 -9.3893,1.17757 z m 14.78788,-1.78788 C 115.10455,169.19545 114,166.925 114,165.5 c 0,-3.31527 4.15937,-7.5 7.45455,-7.5 2.80215,0 6.54545,3.14541 6.54545,5.5 0,1.13333 -1.22222,1.5 -5,1.5 -5.65232,0 -6.72089,1.82632 -2.63498,4.50352 1.79775,1.17793 2.99704,1.30932 5,0.5478 3.08648,-1.17348 3.64073,0.34005 0.70072,1.9135 -3.23097,1.72916 -7.02261,1.16922 -9.61119,-1.41937 z M 123.75,161.75 c -0.22917,-0.6875 -1.46667,-1.25 -2.75,-1.25 -1.28333,0 -2.52083,0.5625 -2.75,1.25 -0.27485,0.82456 0.66111,1.25 2.75,1.25 2.08889,0 3.02485,-0.42544 2.75,-1.25 z m 16.05,10.05 c 0.72281,-0.72281 1.2,-4.22222 1.2,-8.8 0,-4.57778 -0.47719,-8.07719 -1.2,-8.8 -1.92208,-1.92208 10.19977,-1.58889 12.97749,0.3567 2.84766,1.99458 2.83632,4.87692 -0.0275,6.99031 -1.42129,1.04886 -1.81032,1.83016 -1.05624,2.12129 0.65657,0.25348 1.69084,1.96702 2.29837,3.80786 1.16546,3.53137 3.02047,4.83997 5.50787,3.88547 1.15802,-0.44438 1.5,-2.3751 1.5,-8.46862 C 161,158.29767 160.5822,155 160,155 c -0.55,0 -1,-0.50078 -1,-1.11285 0,-0.74889 2.29104,-0.98339 7.00521,-0.71701 9.07043,0.51252 11.49479,2.58573 11.49479,9.82986 0,7.52116 -2.37567,9.3887 -12.52984,9.84983 -10.6987,0.48585 -12.60652,-0.11097 -14.72297,-4.6058 C 147.87434,163.20467 145,162.64738 145,167.22668 c 0,1.85532 0.54,3.91332 1.2,4.57332 0.93333,0.93333 0.22222,1.2 -3.2,1.2 -3.42222,0 -4.13333,-0.26667 -3.2,-1.2 z m 32.6433,-3.02251 C 173.29948,167.55512 174,164.95524 174,163 c 0,-4.859 -2.37802,-8 -6.0567,-8 l -2.9433,0 0,8 0,8 2.9433,0 c 1.9079,0 3.49091,-0.78184 4.5,-2.22251 z m -22.13628,-8.89157 C 151.81849,157.47349 150.41333,155 147.53138,155 145.29565,155 145,155.41689 145,158.56955 c 0,3.08399 0.29218,3.52608 2.14787,3.25 1.18133,-0.17575 2.60295,-1.04588 3.15915,-1.93363 z M 180.8,171.8 c 1.47786,-1.47786 1.66026,-16.8 0.2,-16.8 -0.55,0 -1,-0.45 -1,-1 0,-0.57778 3.16667,-1 7.5,-1 7.33333,0 7.5,0.0556 7.5,2.5 0,2.73716 -1.7214,3.38961 -2.63837,1 -0.32811,-0.85503 -1.81954,-1.5 -3.46862,-1.5 -2.63963,0 -2.89301,0.30654 -2.89301,3.5 0,2.7037 0.40952,3.5 1.8,3.5 0.99,0 2.34,-0.54 3,-1.2 0.93333,-0.93333 1.18246,-0.43333 1.12105,2.25 -0.0434,1.8975 -0.30592,2.8875 -0.58333,2.2 -0.27741,-0.6875 -1.59189,-1.25 -2.92105,-1.25 -2.08861,0 -2.41667,0.46837 -2.41667,3.45031 0,2.23104 0.61841,3.8105 1.75,4.46959 1.36093,0.79267 0.64948,1.02604 -3.2,1.04969 -3.85,0.0236 -4.68333,-0.23626 -3.75,-1.16959 z M 58,165.5 c 0,-1.08333 1.111111,-1.5 4,-1.5 2.888889,0 4,0.41667 4,1.5 0,1.08333 -1.111111,1.5 -4,1.5 -2.888889,0 -4,-0.41667 -4,-1.5 z m -2.674523,-16.95913 c -1.745987,-0.75947 -3.936718,-2.54411 -4.86829,-3.96587 -2.161373,-3.29867 -0.997422,-4.87482 6.002792,-8.12862 C 59.231991,135.15791 63.3,132.4709 65.5,130.47523 70.06598,126.33334 70.439878,126.95374 59.789533,121 51.500198,116.36611 39.324867,104.2264 34.214713,95.5 27.060488,83.283027 23.023022,68.07044 23.007554,53.273053 c -0.0086,-8.226848 0.390022,-8.714136 10.173651,-12.436621 8.918888,-3.393467 18.23972,-3.565334 28.000442,-0.5163 4.575094,1.429159 10.471481,3.966785 13.103081,5.639169 C 79.190102,49.07667 81,49.661259 81,48.128305 81,46.516183 90.920967,32.041055 95.229471,27.36688 100.71781,21.412731 109.38433,15.550136 117.82294,12.083181 c 8.602,-3.5340785 23.27923,-7.3846661 24.27826,-6.3694237 1.47653,1.5005055 6.88386,16.0971347 8.492,22.9234297 2.10029,8.915418 2.06111,23.073379 -0.0868,31.362813 -0.92633,3.575 -3.21923,9.825874 -5.09533,13.890832 C 143.53499,77.955789 142,81.374855 142,81.488756 c 0,0.113901 3.4875,1.925764 7.75,4.026361 9.59522,4.728608 17.51449,12.498611 21.9183,21.505163 3.78971,7.75062 6.01091,17.84209 4.53441,20.60096 -1.53694,2.87179 -16.63202,11.42044 -25.65698,14.53006 -14.59391,5.02845 -31.57583,5.50784 -45.54407,1.28569 -5.901668,-1.78388 -17.741357,-7.44441 -22.285322,-10.65456 l -2.783663,-1.96656 -2.216337,2.84207 c -6.607776,8.47331 -15.415127,16.39904 -18.116376,16.30292 -0.604979,-0.0215 -2.528497,-0.66053 -4.274485,-1.41999 z M 115.02809,103.15418 C 118.54811,102.66173 120,101.16235 120,98.019637 c 0,-2.391225 0.53485,-2.864087 4.25,-3.757464 l 4.25,-1.021991 -4.09636,-0.120091 C 115.9072,92.871005 109.9449,98.648833 110.08059,107 l 0.0731,4.5 1.20125,-4 c 0.92369,-3.07579 1.77238,-4.0799 3.67314,-4.34582 z M 80.552519,91.949097 C 87.302757,85.406508 88.898052,76.876808 84.73355,69.594017 81.769328,64.410252 78.484594,62.144476 72.825872,61.380225 62.424938,59.975505 55.201779,64.21408 52.501596,73.30658 c -1.346195,4.53313 -1.351621,5.697493 -0.04746,10.183662 1.517752,5.220884 5.171245,9.603451 9.54586,11.450789 1.375,0.580643 5.35351,0.879974 8.841133,0.665179 5.541376,-0.34128 6.766196,-0.802523 9.711386,-3.657113 z M 60.269032,74.307009 c 0.972967,-0.253543 2.322967,-0.236869 3,0.03705 C 63.946064,74.617986 63.15,74.825431 61.5,74.805051 59.85,74.784672 59.296064,74.560553 60.269032,74.307009 z M 68.8125,66.316886 c 0.721875,-0.288871 1.584375,-0.253344 1.916667,0.07895 0.332291,0.332292 -0.258334,0.568641 -1.3125,0.52522 -1.164943,-0.04798 -1.4019,-0.284941 -0.604167,-0.604167 z M 112.75,41.778856 c 3.17146,-0.815836 3.4371,-1.196391 3.64806,-5.22613 0.0749,-1.431333 1.29424,-2.266425 4.60194,-3.151824 2.65571,-0.710875 3.68031,-1.308529 2.5,-1.458251 -9.03924,-1.146628 -16.59236,5.379834 -16.44356,14.208478 l 0.0564,3.348871 1.19356,-3.442552 c 0.91036,-2.625713 1.96471,-3.640925 4.44356,-4.278592 z"
       id="path3051"
       style="fill:#b0b550" />
    <path
       d="M 6.75,172.33772 C 7.6175935,171.98764 8,169.13099 8,163 c 0,-6.13099 -0.3824065,-8.98764 -1.25,-9.33772 -2.385089,-0.9624 6.769145,-0.64581 10.38754,0.35925 4.183738,1.16209 5.448609,3.97589 3.564048,7.92851 -0.929708,1.94993 -2.096525,2.62299 -4.958691,2.86033 C 12.224139,165.10214 12,165.32172 12,168.47703 c 0,1.84597 0.5625,3.58328 1.25,3.86069 0.6875,0.27741 -0.775,0.50439 -3.25,0.50439 -2.475,0 -3.9375,-0.22698 -3.25,-0.50439 z M 16.8,162.8 c 1.901469,-1.90147 1.457962,-6.59158 -0.734259,-7.76482 C 12.651544,153.20796 12,153.84333 12,159 c 0,4.14815 0.306667,5 1.8,5 0.99,0 2.34,-0.54 3,-1.2 z m 7.95,9.53772 C 25.617594,171.98764 26,169.13099 26,163 c 0,-6.13099 -0.382406,-8.98764 -1.25,-9.33772 -0.6875,-0.27741 0.775,-0.50439 3.25,-0.50439 2.475,0 3.9375,0.22698 3.25,0.50439 -0.701381,0.28301 -1.25,2.22339 -1.25,4.42105 L 30,162 l 4.5,0 4.5,0 0,-3.91667 c 0,-2.19766 -0.548619,-4.13804 -1.25,-4.42105 -0.6875,-0.27741 0.775,-0.50439 3.25,-0.50439 2.475,0 3.9375,0.22698 3.25,0.50439 C 43.382406,154.01236 43,156.86901 43,163 c 0,6.13099 0.382406,8.98764 1.25,9.33772 0.6875,0.27741 -0.775,0.50439 -3.25,0.50439 -2.475,0 -3.9375,-0.22698 -3.25,-0.50439 0.735187,-0.29666 1.25,-2.32339 1.25,-4.92105 L 39,163 l -4.5,0 -4.5,0 0,4.41667 c 0,2.59766 0.514813,4.62439 1.25,4.92105 0.6875,0.27741 -0.775,0.50439 -3.25,0.50439 -2.475,0 -3.9375,-0.22698 -3.25,-0.50439 z m 23,0 C 48.617594,171.98764 49,169.13099 49,163 c 0,-6.13099 -0.382406,-8.98764 -1.25,-9.33772 -0.6875,-0.27741 0.775,-0.50439 3.25,-0.50439 2.475,0 3.9375,0.22698 3.25,0.50439 C 53.382406,154.01236 53,156.86901 53,163 c 0,6.13099 0.382406,8.98764 1.25,9.33772 0.6875,0.27741 -0.775,0.50439 -3.25,0.50439 -2.475,0 -3.9375,-0.22698 -3.25,-0.50439 z M 69,163.08333 c 0,-6.99766 -0.367942,-10.06513 -1.25,-10.42105 -0.778873,-0.31428 -0.621248,-0.53414 0.418213,-0.58333 0.917516,-0.0434 2.380016,-0.35209 3.25,-0.68594 1.38063,-0.5298 1.581787,0.73131 1.581787,9.91667 0,7.48325 0.361139,10.66938 1.25,11.02804 0.6875,0.27741 -0.2125,0.53991 -2,0.58333 L 69,173 l 0,-9.91667 z m 17.280763,8.0506 c -2.035413,-2.02951 -1.169784,-3.41209 3.511163,-5.60805 4.500198,-2.11116 5.454772,-4.64468 2.458074,-6.52394 -1.461245,-0.91636 -1.337493,-0.98851 0.75,-0.43729 3.712944,0.98043 4.128557,1.67664 4.898374,8.20553 l 0.704685,5.97649 -5.476124,-0.12334 c -3.139585,-0.0707 -6.060693,-0.7062 -6.846172,-1.4894 z M 94,168 c 0,-3.3114 -0.250113,-3.47169 -3.065741,-1.96482 C 88.020554,167.59455 88.408606,171 91.5,171 c 2.111111,0 2.5,-0.46667 2.5,-3 z m 9.25,4.29427 c -1.52676,-0.29407 -2.23978,-1.13425 -2.2182,-2.61382 0.0279,-1.90933 0.18328,-1.98491 1.25,-0.60786 0.67001,0.86493 2.1182,2.08874 3.2182,2.71959 2.04942,1.17534 1.67697,1.25845 -2.25,0.50209 z m 14.98546,-0.35546 c -2.70828,-1.05856 -4.46975,-5.15715 -3.63898,-8.46719 0.72913,-2.9051 2.07236,-4.09942 5.60879,-4.987 2.10462,-0.52823 3.25209,-0.11817 5.24441,1.87415 C 129.14682,164.05591 128.64852,165 123,165 c -5.42302,0 -6.4534,1.40374 -3.32597,4.53117 1.20592,1.20592 2.67398,1.51766 5.25,1.11481 2.11263,-0.33038 2.96215,-0.22299 2.07597,0.26245 -2.71873,1.48928 -6.46399,1.92958 -8.76454,1.03038 z M 124,162.10699 c 0,-2.33905 -2.77416,-3.53931 -4.62675,-2.0018 C 116.97989,162.0915 117.77702,164 121,164 c 2.27682,0 3,-0.45633 3,-1.89301 z m 15.75,10.23073 C 140.61759,171.98764 141,169.13099 141,163 c 0,-6.13099 -0.38241,-8.98764 -1.25,-9.33772 -1.84042,-0.74263 6.47479,-0.76732 10.16052,-0.0302 3.8436,0.76872 5.6122,3.52267 4.08948,6.3679 -0.5887,1.1 -1.74301,2 -2.56512,2 -1.24749,0 -1.19368,0.45491 0.32526,2.75 1.001,1.5125 2.29736,3.65 2.8808,4.75 0.58343,1.1 2.2529,2.14239 3.70992,2.31642 l 2.64914,0.31642 0,-8.98308 c 0,-6.20702 -0.38629,-9.16434 -1.25,-9.56958 -0.6875,-0.32257 1.84236,-0.40748 5.62191,-0.1887 8.69389,0.50325 11.90082,3.09247 11.90082,9.60852 0,6.44322 -3.39541,9.28568 -11.72567,9.81611 -10.35607,0.65942 -12.95415,-0.17486 -15.05535,-4.83449 C 148.0132,162.48527 145,162.44963 145,167.91667 c 0,2.19766 0.54862,4.13804 1.25,4.42105 0.6875,0.27741 -0.775,0.50439 -3.25,0.50439 -2.475,0 -3.9375,-0.22698 -3.25,-0.50439 z m 31.61514,-2.4103 C 173.56519,168.19686 174,167.05369 174,163 c 0,-4.05369 -0.43481,-5.19686 -2.63486,-6.92742 C 169.91597,154.93266 167.89097,154 166.86514,154 165.18311,154 165,154.88358 165,163 c 0,8.11642 0.18311,9 1.86514,9 1.02583,0 3.05083,-0.93266 4.5,-2.07258 z m -20.52017,-10.93871 c 0.209,-1.4399 -0.35902,-2.89142 -1.44113,-3.68268 C 146.13347,152.91467 145,153.71449 145,158.41352 c 0,4.32525 0.055,4.3989 2.75,3.68268 1.85703,-0.49352 2.86202,-1.50258 3.09497,-3.10749 z M 180.75,172.33772 C 181.61759,171.98764 182,169.13099 182,163 c 0,-6.13099 -0.38241,-8.98764 -1.25,-9.33772 -0.6875,-0.27741 2.0125,-0.53991 6,-0.58333 L 194,153 l -0.0634,2.75 c -0.0609,2.64338 -0.0985,2.66277 -0.96777,0.5 -0.65912,-1.63981 -1.72672,-2.25 -3.93662,-2.25 -2.87092,0 -3.03222,0.21278 -3.03222,4 0,3.56322 0.26389,4 2.41667,4 1.32916,0 2.64364,-0.5625 2.92105,-1.25 0.27741,-0.6875 0.52623,0.325 0.55292,2.25 0.0394,2.84375 -0.14257,3.17187 -0.97074,1.75 -0.5606,-0.9625 -1.89692,-1.75 -2.96959,-1.75 -1.63936,0 -1.95031,0.70418 -1.95031,4.41667 0,2.59766 0.51481,4.62439 1.25,4.92105 0.6875,0.27741 -0.775,0.50439 -3.25,0.50439 -2.475,0 -3.9375,-0.22698 -3.25,-0.50439 z m -103.268478,-1.9621 c 2.430391,-2.43039 1.645405,-8.51886 -1.285669,-9.97184 -2.247884,-1.11431 -2.253899,-1.15534 -0.246348,-1.68032 3.074382,-0.80397 6.383828,2.36238 6.383828,6.1078 0,3.33851 -2.703403,7.16874 -5.059749,7.16874 -1.136581,0 -1.095497,-0.32094 0.207938,-1.62438 z m 31.208918,-0.29987 c 0.37314,-1.42689 -0.36185,-2.3676 -2.84362,-3.63953 -3.90262,-2.00014 -4.86924,-3.21422 -4.11792,-5.17214 C 102.98341,157.99489 113,157.42694 113,160.625 c 0,1.78899 -0.77951,1.73835 -2.69281,-0.17495 -1.91208,-1.91209 -4.67297,-1.50476 -5.10789,0.7536 -0.20695,1.07457 0.87081,2.2928 2.98851,3.37804 4.13688,2.12 4.93252,3.32496 3.70723,5.61443 -1.31619,2.45932 -3.85427,2.36399 -3.2046,-0.12037 z M 58,165.5 c 0,-1.08333 1.111111,-1.5 4,-1.5 2.888889,0 4,0.41667 4,1.5 0,1.08333 -1.111111,1.5 -4,1.5 -2.888889,0 -4,-0.41667 -4,-1.5 z m 28,-4.39301 c 0,-0.49116 0.711804,-1.16616 1.581787,-1.5 2.258444,-0.86665 2.423336,-0.78392 1.779839,0.89301 C 88.746267,162.1036 86,162.59948 86,161.10699 z M 55.325477,148.54087 c -1.745987,-0.75947 -3.936718,-2.54411 -4.86829,-3.96587 -2.161373,-3.29867 -0.997422,-4.87482 6.002792,-8.12862 C 59.231991,135.15791 63.3,132.4709 65.5,130.47523 70.06598,126.33334 70.439878,126.95374 59.789533,121 51.500198,116.36611 39.324867,104.2264 34.214713,95.5 27.060488,83.283027 23.023022,68.07044 23.007554,53.273053 c -0.0086,-8.226848 0.390022,-8.714136 10.173651,-12.436621 8.918888,-3.393467 18.23972,-3.565334 28.000442,-0.5163 4.575094,1.429159 10.471481,3.966785 13.103081,5.639169 C 79.190102,49.07667 81,49.661259 81,48.128305 81,46.516183 90.920967,32.041055 95.229471,27.36688 100.71781,21.412731 109.38433,15.550136 117.82294,12.083181 c 8.602,-3.5340785 23.27923,-7.3846661 24.27826,-6.3694237 1.47653,1.5005055 6.88386,16.0971347 8.492,22.9234297 2.10029,8.915418 2.06111,23.073379 -0.0868,31.362813 -0.92633,3.575 -3.21923,9.825874 -5.09533,13.890832 C 143.53499,77.955789 142,81.374855 142,81.488756 c 0,0.113901 3.4875,1.925764 7.75,4.026361 9.59522,4.728608 17.51449,12.498611 21.9183,21.505163 3.78971,7.75062 6.01091,17.84209 4.53441,20.60096 -1.53694,2.87179 -16.63202,11.42044 -25.65698,14.53006 -14.59391,5.02845 -31.57583,5.50784 -45.54407,1.28569 -5.901668,-1.78388 -17.741357,-7.44441 -22.285322,-10.65456 l -2.783663,-1.96656 -2.216337,2.84207 c -6.607776,8.47331 -15.415127,16.39904 -18.116376,16.30292 -0.604979,-0.0215 -2.528497,-0.66053 -4.274485,-1.41999 z M 115.02809,103.15418 C 118.54811,102.66173 120,101.16235 120,98.019637 c 0,-2.391225 0.53485,-2.864087 4.25,-3.757464 l 4.25,-1.021991 -4.09636,-0.120091 C 115.9072,92.871005 109.9449,98.648833 110.08059,107 l 0.0731,4.5 1.20125,-4 c 0.92369,-3.07579 1.77238,-4.0799 3.67314,-4.34582 z M 80.552519,91.949097 C 87.302757,85.406508 88.898052,76.876808 84.73355,69.594017 81.769328,64.410252 78.484594,62.144476 72.825872,61.380225 62.424938,59.975505 55.201779,64.21408 52.501596,73.30658 c -1.346195,4.53313 -1.351621,5.697493 -0.04746,10.183662 1.517752,5.220884 5.171245,9.603451 9.54586,11.450789 1.375,0.580643 5.35351,0.879974 8.841133,0.665179 5.541376,-0.34128 6.766196,-0.802523 9.711386,-3.657113 z M 131,90.606989 c 0,-0.216156 -0.69837,-0.661002 -1.55194,-0.988546 -0.88992,-0.341496 -1.29132,-0.173849 -0.94098,0.393011 C 129.09434,90.961658 131,91.416902 131,90.606989 z M 109.39944,43.16271 C 109.79467,42.523219 111.20064,42 112.52383,42 c 2.6523,0 4.80602,-2.976846 3.8868,-5.372286 -0.43416,-1.131403 0.63524,-1.872156 4.2058,-2.913282 4.48356,-1.307345 4.61672,-1.4391 2.0942,-2.072211 -3.59465,-0.9022 -9.49711,1.613482 -12.96063,5.523934 -2.28147,2.575874 -2.73256,3.976241 -2.64764,8.219354 0.0887,4.429189 0.20126,4.700818 0.84042,2.027201 0.40594,-1.69801 1.06143,-3.61051 1.45666,-4.25 z"
       id="path3049"
       style="fill:#666fb1" />
    <path
       d="M 6.75,172.33772 C 7.6175935,171.98764 8,169.13099 8,163 c 0,-6.13099 -0.3824065,-8.98764 -1.25,-9.33772 -2.385089,-0.9624 6.769145,-0.64581 10.38754,0.35925 4.183738,1.16209 5.448609,3.97589 3.564048,7.92851 -0.929708,1.94993 -2.096525,2.62299 -4.958691,2.86033 C 12.224139,165.10214 12,165.32172 12,168.47703 c 0,1.84597 0.5625,3.58328 1.25,3.86069 0.6875,0.27741 -0.775,0.50439 -3.25,0.50439 -2.475,0 -3.9375,-0.22698 -3.25,-0.50439 z M 16.8,162.8 c 1.901469,-1.90147 1.457962,-6.59158 -0.734259,-7.76482 C 12.651544,153.20796 12,153.84333 12,159 c 0,4.14815 0.306667,5 1.8,5 0.99,0 2.34,-0.54 3,-1.2 z m 7.95,9.53772 C 25.617594,171.98764 26,169.13099 26,163 c 0,-6.13099 -0.382406,-8.98764 -1.25,-9.33772 -0.6875,-0.27741 0.775,-0.50439 3.25,-0.50439 2.475,0 3.9375,0.22698 3.25,0.50439 -0.701381,0.28301 -1.25,2.22339 -1.25,4.42105 L 30,162 l 4.5,0 4.5,0 0,-3.91667 c 0,-2.19766 -0.548619,-4.13804 -1.25,-4.42105 -0.6875,-0.27741 0.775,-0.50439 3.25,-0.50439 2.475,0 3.9375,0.22698 3.25,0.50439 C 43.382406,154.01236 43,156.86901 43,163 c 0,6.13099 0.382406,8.98764 1.25,9.33772 0.6875,0.27741 -0.775,0.50439 -3.25,0.50439 -2.475,0 -3.9375,-0.22698 -3.25,-0.50439 0.735187,-0.29666 1.25,-2.32339 1.25,-4.92105 L 39,163 l -4.5,0 -4.5,0 0,4.41667 c 0,2.59766 0.514813,4.62439 1.25,4.92105 0.6875,0.27741 -0.775,0.50439 -3.25,0.50439 -2.475,0 -3.9375,-0.22698 -3.25,-0.50439 z m 23,0 C 48.617594,171.98764 49,169.13099 49,163 c 0,-6.13099 -0.382406,-8.98764 -1.25,-9.33772 -0.6875,-0.27741 0.775,-0.50439 3.25,-0.50439 2.475,0 3.9375,0.22698 3.25,0.50439 C 53.382406,154.01236 53,156.86901 53,163 c 0,6.13099 0.382406,8.98764 1.25,9.33772 0.6875,0.27741 -0.775,0.50439 -3.25,0.50439 -2.475,0 -3.9375,-0.22698 -3.25,-0.50439 z M 69,163.08333 c 0,-6.99766 -0.367942,-10.06513 -1.25,-10.42105 -0.778873,-0.31428 -0.621248,-0.53414 0.418213,-0.58333 0.917516,-0.0434 2.380016,-0.35209 3.25,-0.68594 1.38063,-0.5298 1.581787,0.73131 1.581787,9.91667 0,7.48325 0.361139,10.66938 1.25,11.02804 0.6875,0.27741 -0.2125,0.53991 -2,0.58333 L 69,173 l 0,-9.91667 z m 17.280763,8.0506 c -2.035413,-2.02951 -1.169784,-3.41209 3.511163,-5.60805 4.500198,-2.11116 5.454772,-4.64468 2.458074,-6.52394 -1.461245,-0.91636 -1.337493,-0.98851 0.75,-0.43729 3.712944,0.98043 4.128557,1.67664 4.898374,8.20553 l 0.704685,5.97649 -5.476124,-0.12334 c -3.139585,-0.0707 -6.060693,-0.7062 -6.846172,-1.4894 z M 94,168 c 0,-3.3114 -0.250113,-3.47169 -3.065741,-1.96482 C 88.020554,167.59455 88.408606,171 91.5,171 c 2.111111,0 2.5,-0.46667 2.5,-3 z m 9.25,4.29427 c -1.52676,-0.29407 -2.23978,-1.13425 -2.2182,-2.61382 0.0279,-1.90933 0.18328,-1.98491 1.25,-0.60786 0.67001,0.86493 2.1182,2.08874 3.2182,2.71959 2.04942,1.17534 1.67697,1.25845 -2.25,0.50209 z m 14.98546,-0.35546 c -2.70828,-1.05856 -4.46975,-5.15715 -3.63898,-8.46719 0.72913,-2.9051 2.07236,-4.09942 5.60879,-4.987 2.10462,-0.52823 3.25209,-0.11817 5.24441,1.87415 C 129.14682,164.05591 128.64852,165 123,165 c -5.42302,0 -6.4534,1.40374 -3.32597,4.53117 1.20592,1.20592 2.67398,1.51766 5.25,1.11481 2.11263,-0.33038 2.96215,-0.22299 2.07597,0.26245 -2.71873,1.48928 -6.46399,1.92958 -8.76454,1.03038 z M 124,162.10699 c 0,-2.33905 -2.77416,-3.53931 -4.62675,-2.0018 C 116.97989,162.0915 117.77702,164 121,164 c 2.27682,0 3,-0.45633 3,-1.89301 z m 15.75,10.23073 C 140.61759,171.98764 141,169.13099 141,163 c 0,-6.13099 -0.38241,-8.98764 -1.25,-9.33772 -1.84042,-0.74263 6.47479,-0.76732 10.16052,-0.0302 3.8436,0.76872 5.6122,3.52267 4.08948,6.3679 -0.5887,1.1 -1.74301,2 -2.56512,2 -1.24749,0 -1.19368,0.45491 0.32526,2.75 1.001,1.5125 2.29736,3.65 2.8808,4.75 0.58343,1.1 2.2529,2.14239 3.70992,2.31642 l 2.64914,0.31642 0,-8.98308 c 0,-6.20702 -0.38629,-9.16434 -1.25,-9.56958 -0.6875,-0.32257 1.84236,-0.40748 5.62191,-0.1887 8.69389,0.50325 11.90082,3.09247 11.90082,9.60852 0,6.44322 -3.39541,9.28568 -11.72567,9.81611 -10.35607,0.65942 -12.95415,-0.17486 -15.05535,-4.83449 C 148.0132,162.48527 145,162.44963 145,167.91667 c 0,2.19766 0.54862,4.13804 1.25,4.42105 0.6875,0.27741 -0.775,0.50439 -3.25,0.50439 -2.475,0 -3.9375,-0.22698 -3.25,-0.50439 z m 31.61514,-2.4103 C 173.56519,168.19686 174,167.05369 174,163 c 0,-4.05369 -0.43481,-5.19686 -2.63486,-6.92742 C 169.91597,154.93266 167.89097,154 166.86514,154 165.18311,154 165,154.88358 165,163 c 0,8.11642 0.18311,9 1.86514,9 1.02583,0 3.05083,-0.93266 4.5,-2.07258 z m -20.52017,-10.93871 c 0.209,-1.4399 -0.35902,-2.89142 -1.44113,-3.68268 C 146.13347,152.91467 145,153.71449 145,158.41352 c 0,4.32525 0.055,4.3989 2.75,3.68268 1.85703,-0.49352 2.86202,-1.50258 3.09497,-3.10749 z M 180.75,172.33772 C 181.61759,171.98764 182,169.13099 182,163 c 0,-6.13099 -0.38241,-8.98764 -1.25,-9.33772 -0.6875,-0.27741 2.0125,-0.53991 6,-0.58333 L 194,153 l -0.0634,2.75 c -0.0609,2.64338 -0.0985,2.66277 -0.96777,0.5 -0.65912,-1.63981 -1.72672,-2.25 -3.93662,-2.25 -2.87092,0 -3.03222,0.21278 -3.03222,4 0,3.56322 0.26389,4 2.41667,4 1.32916,0 2.64364,-0.5625 2.92105,-1.25 0.27741,-0.6875 0.52623,0.325 0.55292,2.25 0.0394,2.84375 -0.14257,3.17187 -0.97074,1.75 -0.5606,-0.9625 -1.89692,-1.75 -2.96959,-1.75 -1.63936,0 -1.95031,0.70418 -1.95031,4.41667 0,2.59766 0.51481,4.62439 1.25,4.92105 0.6875,0.27741 -0.775,0.50439 -3.25,0.50439 -2.475,0 -3.9375,-0.22698 -3.25,-0.50439 z m -103.268478,-1.9621 c 2.430391,-2.43039 1.645405,-8.51886 -1.285669,-9.97184 -2.247884,-1.11431 -2.253899,-1.15534 -0.246348,-1.68032 3.074382,-0.80397 6.383828,2.36238 6.383828,6.1078 0,3.33851 -2.703403,7.16874 -5.059749,7.16874 -1.136581,0 -1.095497,-0.32094 0.207938,-1.62438 z m 31.208918,-0.29987 c 0.37314,-1.42689 -0.36185,-2.3676 -2.84362,-3.63953 -3.90262,-2.00014 -4.86924,-3.21422 -4.11792,-5.17214 C 102.98341,157.99489 113,157.42694 113,160.625 c 0,1.78899 -0.77951,1.73835 -2.69281,-0.17495 -1.91208,-1.91209 -4.67297,-1.50476 -5.10789,0.7536 -0.20695,1.07457 0.87081,2.2928 2.98851,3.37804 4.13688,2.12 4.93252,3.32496 3.70723,5.61443 -1.31619,2.45932 -3.85427,2.36399 -3.2046,-0.12037 z M 58,165.5 c 0,-1.08333 1.111111,-1.5 4,-1.5 2.888889,0 4,0.41667 4,1.5 0,1.08333 -1.111111,1.5 -4,1.5 -2.888889,0 -4,-0.41667 -4,-1.5 z m 28,-4.39301 c 0,-0.49116 0.711804,-1.16616 1.581787,-1.5 2.258444,-0.86665 2.423336,-0.78392 1.779839,0.89301 C 88.746267,162.1036 86,162.59948 86,161.10699 z M 55.325477,148.54087 c -1.745987,-0.75947 -3.936718,-2.54411 -4.86829,-3.96587 -2.161373,-3.29867 -0.997422,-4.87482 6.002792,-8.12862 C 59.231991,135.15791 63.3,132.4709 65.5,130.47523 70.06598,126.33334 70.439878,126.95374 59.789533,121 51.500198,116.36611 39.324867,104.2264 34.214713,95.5 27.060488,83.283027 23.023022,68.07044 23.007554,53.273053 c -0.0086,-8.226848 0.390022,-8.714136 10.173651,-12.436621 8.918888,-3.393467 18.23972,-3.565334 28.000442,-0.5163 4.575094,1.429159 10.471481,3.966785 13.103081,5.639169 C 79.190102,49.07667 81,49.661259 81,48.128305 81,46.516183 90.920967,32.041055 95.229471,27.36688 100.71781,21.412731 109.38433,15.550136 117.82294,12.083181 c 8.602,-3.5340785 23.27923,-7.3846661 24.27826,-6.3694237 1.47653,1.5005055 6.88386,16.0971347 8.492,22.9234297 2.10029,8.915418 2.06111,23.073379 -0.0868,31.362813 -0.92633,3.575 -3.21923,9.825874 -5.09533,13.890832 C 143.53499,77.955789 142,81.374855 142,81.488756 c 0,0.113901 3.4875,1.925764 7.75,4.026361 9.59522,4.728608 17.51449,12.498611 21.9183,21.505163 3.78971,7.75062 6.01091,17.84209 4.53441,20.60096 -1.53694,2.87179 -16.63202,11.42044 -25.65698,14.53006 -14.59391,5.02845 -31.57583,5.50784 -45.54407,1.28569 -5.901668,-1.78388 -17.741357,-7.44441 -22.285322,-10.65456 l -2.783663,-1.96656 -2.216337,2.84207 c -6.607776,8.47331 -15.415127,16.39904 -18.116376,16.30292 -0.604979,-0.0215 -2.528497,-0.66053 -4.274485,-1.41999 z m 75.358383,-25.48433 c 6.19872,-2.81431 9.64947,-8.55484 9.64947,-16.05247 0,-6.68019 -2.07343,-10.582584 -8.10483,-15.25407 -7.6743,-5.94395 -21.80981,-1.782996 -25.71789,7.570366 -6.573606,15.732854 8.72156,30.751474 24.17325,23.736174 z M 80.552519,91.949097 C 87.302757,85.406508 88.898052,76.876808 84.73355,69.594017 81.769328,64.410252 78.484594,62.144476 72.825872,61.380225 62.424938,59.975505 55.201779,64.21408 52.501596,73.30658 c -1.346195,4.53313 -1.351621,5.697493 -0.04746,10.183662 1.517752,5.220884 5.171245,9.603451 9.54586,11.450789 1.375,0.580643 5.35351,0.879974 8.841133,0.665179 5.541376,-0.34128 6.766196,-0.802523 9.711386,-3.657113 z M 109.39944,43.16271 C 109.79467,42.523219 111.20064,42 112.52383,42 c 2.6523,0 4.80602,-2.976846 3.8868,-5.372286 -0.43416,-1.131403 0.63524,-1.872156 4.2058,-2.913282 4.48356,-1.307345 4.61672,-1.4391 2.0942,-2.072211 -3.59465,-0.9022 -9.49711,1.613482 -12.96063,5.523934 -2.28147,2.575874 -2.73256,3.976241 -2.64764,8.219354 0.0887,4.429189 0.20126,4.700818 0.84042,2.027201 0.40594,-1.69801 1.06143,-3.61051 1.45666,-4.25 z"
       id="path3047"
       style="fill:#9fa51a" />
    <path
       d="M 104.04677,103.75627 C 103.95842,100.46251 89.964744,92 84.606513,92 l -2.227677,0 2.560582,-5.470195 c 2.231264,-4.766669 2.677346,-5.215343 3.468473,-3.488623 1.567515,3.421275 15.245969,10.940177 19.964229,10.974131 1.47953,0.01065 1.7374,0.263091 0.84633,0.828516 -0.70485,0.447262 -2.1463,3.027871 -3.20323,5.734691 -1.05692,2.70681 -1.94272,4.1368 -1.96845,3.17775 z M 117.69885,88 c 0.39819,-0.825 0.88624,-5.188736 1.08455,-9.697192 C 119.32956,65.885807 116.18562,61 107.64929,61 c -4.58183,0 -12.872785,4.3981 -17.089439,9.065432 l -3.569477,3.950984 -1.572888,-3.931036 c -0.865089,-2.16207 -2.212924,-4.17664 -2.995188,-4.476823 -2.661038,-1.021137 -1.433395,-2.351166 2.794143,-3.027177 4.720508,-0.754839 14.1682,-6.563055 15.880849,-9.763164 0.65429,-1.222556 1.38407,-1.657392 1.7602,-1.048807 0.35338,0.571784 0.64251,-2.025651 0.64251,-5.77208 0,-6.122813 0.3133,-7.200316 3.098,-10.654508 2.09413,-2.597594 4.80991,-4.465743 8.38102,-5.765184 7.28214,-2.649801 13.00066,-1.223311 18.26536,4.556313 7.56114,8.300663 7.10874,16.42624 -1.4017,25.176144 L 126.79481,64.5 l -0.49142,8 c -0.27028,4.4 -0.0556,9.874126 0.47714,12.164724 l 0.96855,4.164724 -5.38711,0.335276 C 117.84951,89.445564 117.0924,89.256457 117.69885,88 z M 109.39944,43.16271 C 109.79467,42.523219 111.20064,42 112.52383,42 c 2.6523,0 4.80602,-2.976846 3.8868,-5.372286 -0.43416,-1.131403 0.63524,-1.872156 4.2058,-2.913282 4.48356,-1.307345 4.61672,-1.4391 2.0942,-2.072211 -3.59465,-0.9022 -9.49711,1.613482 -12.96063,5.523934 -2.28147,2.575874 -2.73256,3.976241 -2.64764,8.219354 0.0887,4.429189 0.20126,4.700818 0.84042,2.027201 0.40594,-1.69801 1.06143,-3.61051 1.45666,-4.25 z"
       id="path3045"
       style="fill:#df3323" />
    <path
       d="M 104.04677,103.75627 C 103.95842,100.46251 89.964744,92 84.606513,92 l -2.227677,0 2.560582,-5.470195 c 2.231264,-4.766669 2.677346,-5.215343 3.468473,-3.488623 1.567515,3.421275 15.245969,10.940177 19.964229,10.974131 1.47953,0.01065 1.7374,0.263091 0.84633,0.828516 -0.70485,0.447262 -2.1463,3.027871 -3.20323,5.734691 -1.05692,2.70681 -1.94272,4.1368 -1.96845,3.17775 z M 117.69885,88 c 1.50317,-3.11432 1.49891,-17.897212 -0.006,-20.913931 l -1.4541,-2.91481 5.30115,-0.33563 L 126.84102,63.5 126.3232,72 c -0.2848,4.675 -0.0805,10.374126 0.45403,12.664724 l 0.97185,4.164724 -5.38711,0.335276 C 117.84951,89.445564 117.0924,89.256457 117.69885,88 z M 85.4263,70.10741 c -0.869937,-2.174186 -2.221738,-4.19867 -3.004002,-4.498853 -2.661038,-1.021137 -1.433395,-2.351166 2.794143,-3.027177 4.653093,-0.744059 14.159996,-6.547724 15.826469,-9.661562 0.98044,-1.83197 1.31273,-1.614009 4.26362,2.796685 l 3.20031,4.783497 -4.05286,1.044487 c -5.280695,1.36092 -10.561197,4.674659 -14.38005,9.024093 L 87.008004,74.060477 85.4263,70.10741 z"
       id="path3043"
       style="fill:#4da41b" />
  </g>
</svg>
